<svg width="24" height="24" viewBox="0 0 24 24" fill="none" xmlns="http://www.w3.org/2000/svg">
<path fill-rule="evenodd" clip-rule="evenodd" d="M10.4058 10.1747C10.1181 10.1907 9.89786 10.4369 9.91385 10.7246L10.1747 15.4202C10.1907 15.7079 10.4369 15.9282 10.7246 15.9122C11.0123 15.8963 11.2326 15.6501 11.2166 15.3624L10.9557 10.6667C10.9397 10.379 10.6935 10.1587 10.4058 10.1747Z" fill="#E64646"/>
<path fill-rule="evenodd" clip-rule="evenodd" d="M13.5942 10.1747C13.8819 10.1907 14.1021 10.4369 14.0862 10.7246L13.8253 15.4202C13.8093 15.7079 13.5631 15.9282 13.2754 15.9122C12.9877 15.8963 12.7674 15.6501 12.7834 15.3624L13.0443 10.6667C13.0603 10.379 13.3065 10.1587 13.5942 10.1747Z" fill="#E64646"/>
<path fill-rule="evenodd" clip-rule="evenodd" d="M6.52174 7.82609C6.23359 7.82609 6 8.05968 6 8.34783C6 8.63597 6.23359 8.86956 6.52174 8.86956H7.09361L7.77058 15.5596C7.8091 15.9403 7.84101 16.2558 7.88741 16.5125C7.93576 16.78 8.00609 17.0238 8.14232 17.2502C8.35479 17.6032 8.66699 17.8854 9.03958 18.0612C9.27848 18.174 9.5281 18.2194 9.79917 18.2406C10.0592 18.2609 10.3763 18.2609 10.759 18.2609H13.241C13.6237 18.2609 13.9408 18.2609 14.2008 18.2406C14.4719 18.2194 14.7215 18.174 14.9604 18.0612C15.333 17.8854 15.6452 17.6032 15.8577 17.2502C15.9939 17.0238 16.0642 16.78 16.1126 16.5125C16.159 16.2558 16.1909 15.9403 16.2294 15.5596L16.9064 8.86956H17.4783C17.7664 8.86956 18 8.63597 18 8.34783C18 8.05968 17.7664 7.82609 17.4783 7.82609H14.2896C14.0524 6.78053 13.1174 6 12 6C10.8826 6 9.9476 6.78053 9.71035 7.82609H6.52174ZM8.80671 15.4344C8.84779 15.8404 8.87597 16.1151 8.91425 16.3269C8.95138 16.5324 8.99165 16.6378 9.03634 16.712C9.14257 16.8885 9.29867 17.0296 9.48497 17.1176C9.56333 17.1545 9.67228 17.184 9.88044 17.2003C10.095 17.217 10.3712 17.2174 10.7792 17.2174H13.2208C13.6288 17.2174 13.905 17.217 14.1196 17.2003C14.3277 17.184 14.4367 17.1545 14.515 17.1176C14.7013 17.0296 14.8574 16.8885 14.9637 16.712C15.0083 16.6378 15.0486 16.5324 15.0858 16.3269C15.124 16.1151 15.1522 15.8404 15.1933 15.4344L15.8576 8.86956H8.14242L8.80671 15.4344ZM12 7.04348C11.4651 7.04348 11.0055 7.36542 10.8042 7.82609H13.1958C12.9945 7.36542 12.5349 7.04348 12 7.04348Z" fill="#E64646"/>
<path opacity="0.12" d="M12 24C18.6274 24 24 18.6274 24 12C24 5.37258 18.6274 0 12 0C5.37258 0 0 5.37258 0 12C0 18.6274 5.37258 24 12 24Z" fill="#818C99"/>
</svg>
