<svg width="24" height="24" viewBox="0 0 24 24" fill="none" xmlns="http://www.w3.org/2000/svg">
<path fill-rule="evenodd" clip-rule="evenodd" d="M16.2487 6.17842C15.7818 5.94053 15.2292 5.94053 14.7623 6.17842C14.5289 6.29737 14.3259 6.50086 14.0911 6.7363L6.91525 13.9122C6.72203 14.1053 6.58322 14.2441 6.46917 14.401C6.24141 14.7145 6.09107 15.0775 6.03046 15.4602C6.0001 15.6518 6.00015 15.8481 6.00022 16.1213L6.00022 16.6902L6.00012 16.7344C5.99956 16.8882 5.99887 17.0771 6.05364 17.2457C6.16159 17.5779 6.42206 17.8384 6.7543 17.9464C6.92286 18.0011 7.11186 18.0005 7.26561 17.9999L7.30979 17.9998L7.87873 17.9998C8.15192 17.9999 8.34818 17.9999 8.53981 17.9696C8.92253 17.9089 9.28548 17.7586 9.59896 17.5308C9.75593 17.4168 9.89467 17.278 10.0878 17.0848L17.2637 9.90893C17.4991 9.67409 17.7026 9.47111 17.8216 9.23766C18.0595 8.77077 18.0595 8.21822 17.8216 7.75133C17.7026 7.51789 17.4991 7.31491 17.2637 7.08008L16.9199 6.7363C16.6851 6.50087 16.4821 6.29737 16.2487 6.17842ZM15.2578 7.15078C15.4134 7.07148 15.5976 7.07148 15.7532 7.15078C15.8108 7.18012 15.8827 7.2425 16.2 7.55979L16.4402 7.8C16.7575 8.11728 16.8199 8.18918 16.8492 8.24678C16.9285 8.4024 16.9285 8.58659 16.8492 8.74222C16.8199 8.79981 16.7575 8.87171 16.4402 9.189L15.972 9.65718L14.3428 8.02798L14.811 7.55979C15.1283 7.2425 15.2002 7.18012 15.2578 7.15078ZM13.5711 8.79965L7.71482 14.656C7.48267 14.8881 7.40929 14.9637 7.35206 15.0425C7.22552 15.2167 7.142 15.4183 7.10833 15.6309C7.09309 15.7271 7.09153 15.8324 7.09153 16.1607V16.6902C7.09153 16.7977 7.09172 16.8565 7.09406 16.8992L7.09443 16.9056L7.1008 16.906C7.1435 16.9083 7.20228 16.9085 7.30979 16.9085H7.83927C8.16758 16.9085 8.27292 16.9069 8.36909 16.8917C8.58171 16.858 8.78335 16.7745 8.95751 16.648C9.03628 16.5907 9.11187 16.5173 9.34403 16.2852L15.2004 10.4289L13.5711 8.79965Z" fill="#818C99"/>
<path opacity="0.12" d="M12 24C18.6274 24 24 18.6274 24 12C24 5.37258 18.6274 0 12 0C5.37258 0 0 5.37258 0 12C0 18.6274 5.37258 24 12 24Z" fill="#818C99"/>
</svg>
