<svg width="220" height="58" viewBox="0 0 220 58" fill="none" xmlns="http://www.w3.org/2000/svg">
<g clip-path="url(#clip0_176_2774)">
<path opacity="0.7" d="M0 35.2695V49.5321C0 54.2079 3.78415 57.9997 8.45068 57.9997C13.1172 57.9997 16.9014 54.2079 16.9014 49.5321V45.5585L16.7425 45.6368C9.0507 49.4917 0 43.8862 0 35.2695Z" fill="white"/>
<path opacity="0.7" d="M40.3575 13.0703L16.7425 1.23792C9.0507 -2.61443 0 2.99105 0 11.6077V28.7955C0 24.1196 3.78415 20.3279 8.45068 20.3279C13.1172 20.3279 16.9014 24.1196 16.9014 28.7955V45.5589L40.3575 33.8073C48.8838 29.5357 48.8838 17.342 40.3575 13.0703Z" fill="white"/>
<path d="M16.7425 45.6374C9.0507 49.4922 0 43.8867 0 35.2676C0 43.8867 9.0507 49.4897 16.7425 45.6374Z" fill="white"/>
<path opacity="0.8" d="M8.45068 20.3281C3.78415 20.3281 0 24.1198 0 28.7957V35.2702C0 43.8868 9.0507 49.4923 16.7425 45.64L16.9014 45.5617V28.7957C16.9014 24.1198 13.1172 20.3281 8.45068 20.3281Z" fill="white"/>
<path d="M56.6929 41.3449H53.7559V22.0503C53.7559 18.7891 54.9458 15.9623 57.2904 13.6156C59.6728 11.2284 62.4914 10.0739 65.7487 10.1952C68.8849 10.2735 71.5446 11.4683 73.7304 13.7747C75.9137 16.0811 77.0255 18.827 77.0255 22.0099C77.0255 25.1928 75.833 28.1762 73.4909 30.5634C71.1488 32.9102 68.3303 34.0646 65.073 33.9459C61.7376 33.8271 58.9594 32.4731 56.6954 29.9268V41.3449H56.6929ZM65.7058 13.1785C63.2049 13.0598 61.0998 13.8934 59.3123 15.7653C57.5652 17.6346 56.7307 19.7844 56.7711 22.2903C56.8114 24.6775 57.6837 26.706 59.3123 28.4162C60.941 30.1264 62.925 30.9625 65.2671 30.9625C67.6092 30.9625 69.674 30.1264 71.3808 28.4162C73.0875 26.706 73.9624 24.6775 74.0002 22.2499C74.0405 19.8627 73.2464 17.7938 71.6178 16.0027C69.9891 14.2117 68.0454 13.2568 65.7008 13.1785H65.7058Z" fill="white"/>
<path d="M103.187 33.3875H100.25V29.8459C97.7893 32.6701 94.7716 34.0241 91.1967 33.9028C88.0604 33.7841 85.4007 32.5892 83.2174 30.2829C81.0342 27.9765 79.9224 25.2306 79.9224 22.0477C79.9224 18.8648 81.1123 15.8814 83.4569 13.5346C85.799 11.1474 88.6176 10.0334 91.9152 10.1521C95.0917 10.2709 97.7918 11.4657 100.015 13.8125C102.239 16.1189 103.31 18.8648 103.192 22.0073V33.385L103.187 33.3875ZM82.9779 21.8102C82.9376 24.1974 83.6914 26.3067 85.32 28.0952C86.9486 29.8863 88.9327 30.8007 91.237 30.9195C93.7379 31.0382 95.843 30.1641 97.5901 28.3327C99.3776 26.4634 100.21 24.2757 100.172 21.7673C100.131 19.3801 99.2591 17.3516 97.6305 15.6414C96.0018 13.9312 94.0178 13.0951 91.7135 13.0951C89.2907 13.0951 87.2663 13.9312 85.5595 15.6414C83.8527 17.3516 83.0183 19.3801 82.9779 21.8077V21.8102Z" fill="white"/>
<path d="M114.859 41.3043H111.605L115.018 32.6726L106.363 10.7129H109.658L116.884 28.6939L124.508 10.7129H127.684L114.859 41.3069V41.3043Z" fill="white"/>
<path d="M162.742 33.3872H159.606V19.4632C159.606 17.7126 159.089 16.202 158.099 14.9667C157.105 13.7339 155.756 13.0974 154.128 13.0974C152.499 13.0974 151.032 13.6556 149.799 14.7292C148.609 15.8028 148.012 17.1568 148.012 18.7862V33.3872H144.835V18.7862C144.835 17.1543 144.24 15.8028 143.01 14.7292C141.82 13.6556 140.39 13.0974 138.721 13.0974C137.052 13.0974 135.784 13.7339 134.791 14.9667C133.798 16.1994 133.321 17.6722 133.321 19.4632V33.3872H130.185V19.8219C130.185 16.9977 130.979 14.6888 132.608 12.9786C134.115 11.3467 136.102 10.4323 138.563 10.2327C141.858 9.95484 144.48 11.3872 146.423 14.4488C148.37 11.3846 150.989 9.95232 154.284 10.2327C156.745 10.4323 158.731 11.3467 160.279 12.9786C161.908 14.6888 162.74 16.9977 162.74 19.8219V33.3872H162.742Z" fill="white"/>
<path d="M188.869 25.9476C188.034 28.3753 186.605 30.3229 184.58 31.7552C182.556 33.1875 180.332 33.9024 177.869 33.9429C174.773 33.9833 172.033 32.8693 169.65 30.5604C167.268 28.2136 166.038 25.4677 165.997 22.2443C165.919 18.8618 167.109 15.9189 169.57 13.4913C172.071 11.0258 174.97 9.87134 178.346 10.0709C181.363 10.2705 183.983 11.5032 186.206 13.8096C188.349 16.078 189.423 18.6244 189.423 21.4486V23.0805H169.096C169.333 25.349 170.286 27.2587 171.995 28.7289C173.702 30.2017 175.688 30.957 177.99 30.9165C181.562 30.8761 184.104 29.2064 185.654 25.9426H188.871L188.869 25.9476ZM186.446 20.2992C186.01 18.1899 185.016 16.4797 183.468 15.1661C181.92 13.8525 180.055 13.178 177.869 13.1376C175.686 13.0972 173.78 13.7742 172.151 15.0878C170.523 16.4014 169.532 18.152 169.093 20.2992H186.443H186.446Z" fill="white"/>
<path d="M214.995 25.9476C214.16 28.3753 212.731 30.3229 210.706 31.7552C208.682 33.1875 206.458 33.9024 203.995 33.9429C200.899 33.9833 198.159 32.8693 195.776 30.5604C193.394 28.2136 192.164 25.4677 192.123 22.2443C192.045 18.8618 193.235 15.9189 195.696 13.4913C198.197 11.0258 201.096 9.87134 204.472 10.0709C207.489 10.2705 210.109 11.5032 212.332 13.8096C214.475 16.078 215.549 18.6244 215.549 21.4486V23.0805H195.222C195.459 25.349 196.412 27.2587 198.121 28.7289C199.828 30.2017 201.814 30.957 204.116 30.9165C207.688 30.8761 210.23 29.2064 211.78 25.9426H214.997L214.995 25.9476ZM212.572 20.2992C212.136 18.1899 211.142 16.4797 209.594 15.1661C208.046 13.8525 206.181 13.178 203.995 13.1376C201.812 13.0972 199.906 13.7742 198.277 15.0878C196.649 16.4014 195.658 18.152 195.219 20.2992H212.569H212.572Z" fill="white"/>
</g>
<defs>
<clipPath id="clip0_176_2774">
<rect width="220" height="58" fill="white"/>
</clipPath>
</defs>
</svg>
