<svg width="168" height="16" viewBox="0 0 168 16" fill="none" xmlns="http://www.w3.org/2000/svg">
<path d="M0.670451 0.727062H3.68345C4.22845 0.727062 4.69369 0.788783 5.08803 0.907812C5.48238 1.02684 5.81027 1.18555 6.07612 1.37511C6.34198 1.56908 6.55908 1.7851 6.71859 2.02316C6.88253 2.26122 7.0066 2.50368 7.09522 2.74174C7.18384 2.9798 7.24144 3.20463 7.26803 3.41183C7.29462 3.61903 7.30791 3.79096 7.30791 3.92763C7.30791 4.24944 7.27246 4.52718 7.19713 4.76523C7.12181 4.99888 7.03319 5.20168 6.93128 5.37361C6.82494 5.54554 6.71416 5.69102 6.59453 5.81005C6.47489 5.92908 6.36856 6.03047 6.27108 6.11423C6.39515 6.18917 6.55465 6.29057 6.74961 6.41842C6.94457 6.55067 7.13066 6.72701 7.31233 6.94743C7.49399 7.17226 7.65351 7.44559 7.79087 7.76741C7.92823 8.08923 7.9947 8.47718 7.9947 8.92244C7.9947 9.22662 7.94151 9.56607 7.8396 9.95402C7.73326 10.3376 7.54274 10.7035 7.25916 11.0473C6.97558 11.3912 6.58567 11.6821 6.08055 11.9202C5.57986 12.1583 4.92852 12.2773 4.1354 12.2773H0.666016V0.722656L0.670451 0.727062ZM2.36748 5.53672H3.74991C4.14869 5.53672 4.46771 5.48382 4.71584 5.38243C4.95954 5.27662 5.15007 5.14436 5.28299 4.98566C5.41149 4.82254 5.50454 4.64621 5.54885 4.45664C5.59759 4.26267 5.61974 4.08633 5.61974 3.91881C5.61974 3.51323 5.53555 3.19582 5.36718 2.97539C5.19881 2.75056 5.00386 2.58745 4.77788 2.48164C4.55191 2.37584 4.33478 2.31853 4.11767 2.30089C3.90056 2.28326 3.7499 2.27885 3.65686 2.27885H2.37191V5.54113L2.36748 5.53672ZM2.36748 10.7343H4.20186C4.63165 10.7343 4.98169 10.6682 5.25197 10.5315C5.52226 10.3949 5.73938 10.2362 5.89446 10.0466C6.04954 9.85704 6.16031 9.66306 6.21792 9.45145C6.27552 9.24426 6.30652 9.06792 6.30652 8.92244C6.30652 8.71524 6.26665 8.51245 6.1869 8.31406C6.10714 8.11568 6.00966 7.93934 5.89889 7.78505C5.77483 7.61753 5.62861 7.48527 5.4691 7.38828C5.30515 7.29129 5.1412 7.22076 4.97283 7.17667C4.80445 7.137 4.63609 7.11055 4.47215 7.09733C4.30378 7.08851 4.1487 7.07969 4.00248 7.07969H2.37191V10.7343H2.36748Z" fill="white"/>
<path d="M13.0368 8.65774C13.1432 9.07214 13.2983 9.42923 13.5021 9.72901C13.7059 10.0244 13.9407 10.2712 14.2066 10.4608C14.4724 10.6548 14.7516 10.7959 15.0485 10.884C15.3409 10.9722 15.6245 11.0163 15.8947 11.0163C16.5018 11.0163 17.0157 10.8664 17.4411 10.571C17.8665 10.2757 18.1767 9.94061 18.376 9.56589H20.0066C19.7984 10.1258 19.5236 10.5975 19.1913 10.9722C18.8546 11.3469 18.5001 11.6467 18.1146 11.8715C17.7336 12.0964 17.3392 12.2551 16.936 12.3565C16.5328 12.4534 16.165 12.5063 15.8283 12.5063C15.2124 12.5063 14.6319 12.3829 14.0958 12.1404C13.5552 11.898 13.09 11.5673 12.6912 11.1485C12.2924 10.7341 11.9779 10.2492 11.7474 9.69814C11.517 9.14708 11.4019 8.56516 11.4019 7.94798C11.4019 7.30434 11.5215 6.70038 11.7563 6.14491C11.9912 5.58944 12.3102 5.10451 12.7134 4.69893C13.1166 4.29335 13.5863 3.97593 14.1268 3.74669C14.663 3.51745 15.2434 3.40283 15.8593 3.40283C16.4442 3.40283 17.0069 3.51304 17.5386 3.73787C18.0703 3.96271 18.5444 4.2713 18.9521 4.66806C19.3597 5.06483 19.6832 5.53213 19.9269 6.07437C20.1661 6.61662 20.2858 7.20294 20.2858 7.83776C20.2858 7.98324 20.2813 8.14636 20.268 8.3227C20.2592 8.49904 20.2459 8.61366 20.237 8.66656H13.0324L13.0368 8.65774ZM18.6552 7.41014C18.633 7.09714 18.5489 6.78855 18.4026 6.47995C18.2564 6.17136 18.057 5.90244 17.8044 5.66879C17.5519 5.43514 17.2595 5.24558 16.9271 5.1001C16.5904 4.95462 16.2315 4.87968 15.846 4.87968C15.4605 4.87968 15.0839 4.95462 14.756 5.1001C14.4281 5.24558 14.1357 5.43514 13.8831 5.66879C13.6306 5.90244 13.4356 6.17577 13.285 6.47995C13.1388 6.78855 13.0546 7.09714 13.0324 7.41014H18.6508H18.6552Z" fill="white"/>
<path d="M26.8034 15.1693H25.1064L26.3781 12.1098L22.9087 3.63232H24.6678L27.2244 10.3464L29.843 3.63232H31.6021L26.799 15.1737L26.8034 15.1693Z" fill="white"/>
<path d="M43.4686 7.92596C43.4686 8.45498 43.3623 8.99282 43.1451 9.53506C42.9325 10.0773 42.6267 10.5666 42.2279 11.0031C41.8292 11.4395 41.3374 11.801 40.7525 12.0788C40.1676 12.3609 39.5074 12.502 38.7763 12.502C38.0452 12.502 37.385 12.3653 36.8046 12.0876C36.2241 11.8098 35.7323 11.4572 35.3291 11.0163C34.9259 10.5799 34.6157 10.0861 34.403 9.53947C34.1904 8.99282 34.0796 8.44616 34.0796 7.89069C34.0796 7.29555 34.1992 6.73127 34.4341 6.18903C34.6689 5.64678 34.9968 5.17066 35.4133 4.76068C35.8298 4.35069 36.326 4.02005 36.8976 3.76877C37.4692 3.51748 38.0939 3.39404 38.7719 3.39404C39.4498 3.39404 40.0435 3.51307 40.6151 3.75113C41.1867 3.98919 41.683 4.31542 42.1039 4.72541C42.5293 5.1354 42.8616 5.62033 43.1008 6.17139C43.3401 6.72245 43.4597 7.30437 43.4597 7.92156L43.4686 7.92596ZM41.8381 7.92596C41.8381 7.54242 41.7627 7.16771 41.6165 6.80181C41.4703 6.4359 41.262 6.11408 40.9962 5.82753C40.7303 5.54098 40.4069 5.31174 40.0303 5.13981C39.6536 4.96787 39.2371 4.88411 38.7763 4.88411C38.3155 4.88411 37.899 4.96787 37.5224 5.13981C37.1457 5.31174 36.8223 5.54098 36.5564 5.82753C36.2906 6.11408 36.0823 6.4403 35.9361 6.81062C35.7899 7.18093 35.7146 7.55565 35.7146 7.9436C35.7146 8.33155 35.7899 8.71949 35.9361 9.0854C36.0823 9.4513 36.2906 9.77753 36.5653 10.0685C36.8356 10.3594 37.159 10.5931 37.5312 10.765C37.9034 10.937 38.3199 11.0207 38.7807 11.0207C39.2416 11.0207 39.627 10.937 39.9948 10.7694C40.3626 10.6019 40.6904 10.3771 40.9696 10.0905C41.2487 9.80398 41.4614 9.47334 41.6121 9.09862C41.7627 8.7239 41.8381 8.33154 41.8381 7.92596Z" fill="white"/>
<path d="M53.4019 12.2815V7.58207C53.4019 7.41455 53.3931 7.1809 53.3709 6.88112C53.3488 6.58135 53.269 6.28157 53.1361 5.9818C52.9987 5.68643 52.7861 5.42633 52.4936 5.21031C52.2012 4.98989 51.7802 4.88408 51.2397 4.88408C50.5485 4.88408 49.9946 5.11332 49.5781 5.57181C49.1616 6.03029 48.9489 6.69597 48.9489 7.56885V12.2859H47.3184V3.63648H48.8426V4.55785H48.8736C49.0951 4.26689 49.3344 4.04206 49.5958 3.88777C49.8572 3.73347 50.1098 3.61885 50.3491 3.54391C50.5883 3.47337 50.8055 3.42928 51.0004 3.42046C51.1954 3.41165 51.3327 3.40283 51.4169 3.40283C52.0948 3.40283 52.7019 3.53949 53.2291 3.80841C53.7564 4.07733 54.1774 4.46087 54.4919 4.95021C54.6692 5.23235 54.8021 5.54976 54.8907 5.90244C54.9793 6.25512 55.0281 6.67833 55.0414 7.16767V12.2903H53.4108L53.4019 12.2815Z" fill="white"/>
<path d="M66.4913 12.2817V11.0473H66.4603C66.1147 11.5279 65.676 11.8894 65.1399 12.1318C64.6082 12.3743 64.0189 12.4977 63.3808 12.4977C62.6586 12.4977 62.0161 12.3699 61.4578 12.1142C60.8995 11.8585 60.4254 11.519 60.0355 11.1002C59.65 10.677 59.3531 10.1965 59.1582 9.65425C58.9588 9.11201 58.8613 8.55654 58.8613 7.98344C58.8613 7.45442 58.9544 6.91659 59.136 6.37435C59.3177 5.8321 59.5969 5.34276 59.969 4.8975C60.3412 4.45665 60.8109 4.09516 61.3736 3.81301C61.9408 3.53087 62.6099 3.3898 63.3808 3.3898C63.9879 3.3898 64.5506 3.50883 65.0778 3.74248C65.6007 3.97613 66.0172 4.29354 66.3318 4.6859H66.3628V0.718262H67.9934V12.2729H66.4868L66.4913 12.2817ZM66.4913 7.97022C66.4913 7.51173 66.4115 7.09293 66.2565 6.7138C66.1014 6.33467 65.8843 6.00844 65.614 5.73952C65.3437 5.47061 65.0247 5.259 64.6569 5.10911C64.2892 4.95922 63.8992 4.88428 63.4783 4.88428C62.9776 4.88428 62.5389 4.98127 62.1667 5.17524C61.7945 5.36921 61.4844 5.61608 61.2318 5.91586C60.9793 6.22005 60.7932 6.55068 60.6735 6.91659C60.5539 7.28249 60.4919 7.63517 60.4919 7.97903C60.4919 8.3758 60.5672 8.75493 60.7134 9.12083C60.8596 9.48673 61.0635 9.80855 61.3249 10.0907C61.5863 10.3728 61.9009 10.5977 62.2687 10.7696C62.6364 10.9415 63.0308 11.0253 63.4606 11.0253C63.8904 11.0253 64.2892 10.9459 64.6525 10.7828C65.0202 10.6197 65.3393 10.4037 65.6095 10.126C65.8798 9.84823 66.0969 9.52641 66.252 9.1561C66.4071 8.78579 66.4868 8.39343 66.4868 7.97903L66.4913 7.97022Z" fill="white"/>
<path d="M80.5056 12.2817H78.8086V0.727051H82.1672C82.8584 0.727051 83.461 0.810813 83.9794 0.982744C84.4979 1.15467 84.9232 1.39273 85.26 1.70133C85.5967 2.00992 85.8448 2.38024 86.0132 2.81227C86.1816 3.2443 86.2658 3.716 86.2658 4.22739C86.2658 4.73877 86.1816 5.2237 86.0132 5.64692C85.8448 6.07454 85.5967 6.44045 85.26 6.74904C84.9232 7.05763 84.4979 7.29569 83.9794 7.46763C83.461 7.63956 82.8584 7.72332 82.1672 7.72332H80.5056V12.2817ZM80.5056 6.17594H82.1672C82.6502 6.17594 83.0445 6.11422 83.3502 5.98637C83.6604 5.86294 83.9041 5.70423 84.0858 5.51908C84.2674 5.33392 84.3959 5.12231 84.4624 4.89307C84.5289 4.66383 84.5643 4.439 84.5643 4.22298C84.5643 4.00697 84.5289 3.78213 84.4624 3.55289C84.3959 3.32365 84.2674 3.11645 84.0858 2.92689C83.9041 2.73732 83.656 2.58303 83.3502 2.45959C83.0401 2.33615 82.6457 2.27002 82.1672 2.27002H80.5056V6.17594Z" fill="white"/>
<path d="M96.6385 12.2816V10.937H96.6075C96.2929 11.466 95.872 11.8628 95.3447 12.114C94.8174 12.3697 94.2547 12.4976 93.6565 12.4976C92.9254 12.4976 92.2697 12.3697 91.6936 12.114C91.1176 11.8583 90.6347 11.5189 90.2403 11.1001C89.8504 10.6769 89.5491 10.1963 89.3453 9.6541C89.1415 9.11186 89.0396 8.55639 89.0396 7.98329C89.0396 7.45427 89.1326 6.91644 89.3231 6.37419C89.5137 5.83195 89.7972 5.34261 90.1783 4.89735C90.5593 4.4565 91.0379 4.095 91.6139 3.81286C92.1899 3.53072 92.8678 3.38965 93.6521 3.38965C94.2591 3.38965 94.8218 3.51309 95.3491 3.75555C95.872 4.00243 96.2885 4.36392 96.6031 4.84004H96.6341V3.6233H98.2646V12.2727H96.6341L96.6385 12.2816ZM96.6695 7.97006C96.6695 7.51158 96.5898 7.09277 96.4347 6.71364C96.2796 6.33451 96.0625 6.00829 95.7922 5.73937C95.5219 5.47045 95.2029 5.25884 94.8351 5.10895C94.4674 4.95907 94.0774 4.88412 93.6565 4.88412C93.1558 4.88412 92.7172 4.98111 92.345 5.17509C91.9728 5.36906 91.6626 5.61593 91.4101 5.91571C91.1575 6.21989 90.9714 6.55053 90.8518 6.91643C90.7322 7.28234 90.6701 7.63502 90.6701 7.97888C90.6701 8.37564 90.7454 8.75477 90.8917 9.12068C91.0379 9.48658 91.2417 9.8084 91.5031 10.0905C91.7645 10.3727 92.0791 10.5975 92.4469 10.7695C92.8147 10.9414 93.209 11.0251 93.6388 11.0251C94.0686 11.0251 94.4674 10.9458 94.8307 10.7827C95.1985 10.6196 95.5175 10.4035 95.7878 10.1258C96.058 9.84808 96.2752 9.52626 96.4302 9.15594C96.5853 8.78563 96.6651 8.39328 96.6651 7.97888L96.6695 7.97006Z" fill="white"/>
<path d="M105.571 15.1693H103.874L105.146 12.1098L101.676 3.63232H103.435L105.992 10.3464L108.611 3.63232H110.37L105.567 15.1737L105.571 15.1693Z" fill="white"/>
<path d="M125.298 12.2816V7.4719C125.298 7.28234 125.28 7.04428 125.249 6.75332C125.218 6.46236 125.138 6.18022 125.005 5.90248C124.872 5.62475 124.668 5.38669 124.394 5.1839C124.115 4.98111 123.733 4.87972 123.242 4.87972C122.719 4.87972 122.32 4.98111 122.041 5.1839C121.762 5.38669 121.558 5.62475 121.429 5.90248C121.301 6.18022 121.221 6.46236 121.203 6.75332C121.181 7.04428 121.172 7.27793 121.172 7.45427V12.2772H119.542V7.4675C119.551 7.10159 119.542 6.78859 119.502 6.52408C119.467 6.25957 119.36 5.98183 119.179 5.68646C118.97 5.37346 118.722 5.16186 118.443 5.04724C118.159 4.93262 117.867 4.87531 117.566 4.87531C117.034 4.87531 116.617 4.98111 116.325 5.18831C116.033 5.39551 115.815 5.64239 115.683 5.92012C115.545 6.20226 115.47 6.48881 115.448 6.77977C115.426 7.07073 115.417 7.29556 115.417 7.44986V12.2727H113.786V3.6233H115.293V4.56231H115.324C115.395 4.46973 115.492 4.3551 115.612 4.22726C115.731 4.09941 115.891 3.97157 116.081 3.84372C116.276 3.72028 116.511 3.61007 116.786 3.5219C117.065 3.43373 117.406 3.38965 117.814 3.38965C118.075 3.38965 118.341 3.4205 118.616 3.48222C118.886 3.54394 119.148 3.63652 119.391 3.75555C119.635 3.87458 119.856 4.02447 120.051 4.20963C120.246 4.39037 120.401 4.60198 120.512 4.84004C120.583 4.73423 120.685 4.60198 120.809 4.43446C120.933 4.26693 121.106 4.10823 121.327 3.94953C121.549 3.79523 121.824 3.66297 122.152 3.55276C122.48 3.44255 122.892 3.38965 123.383 3.38965C124.115 3.38965 124.739 3.52631 125.249 3.80405C125.763 4.08178 126.157 4.46091 126.441 4.95025C126.764 5.53217 126.928 6.23752 126.928 7.0575V12.2727H125.298V12.2816Z" fill="white"/>
<path d="M132.405 8.65774C132.511 9.07214 132.666 9.42923 132.87 9.72901C133.074 10.0244 133.309 10.2712 133.575 10.4608C133.841 10.6548 134.12 10.7959 134.417 10.884C134.709 10.9722 134.993 11.0163 135.263 11.0163C135.87 11.0163 136.384 10.8664 136.809 10.571C137.235 10.2757 137.545 9.94061 137.744 9.56589H139.375C139.167 10.1258 138.892 10.5975 138.56 10.9722C138.223 11.3469 137.868 11.6467 137.483 11.8715C137.102 12.0964 136.707 12.2551 136.304 12.3565C135.901 12.4534 135.533 12.5063 135.196 12.5063C134.581 12.5063 134 12.3829 133.464 12.1404C132.923 11.898 132.458 11.5673 132.059 11.1485C131.661 10.7341 131.346 10.2492 131.116 9.69814C130.885 9.14708 130.77 8.56516 130.77 7.94798C130.77 7.30434 130.89 6.70038 131.124 6.14491C131.359 5.58944 131.678 5.10451 132.082 4.69893C132.485 4.29335 132.954 3.97593 133.495 3.74669C134.031 3.51745 134.612 3.40283 135.227 3.40283C135.812 3.40283 136.375 3.51304 136.907 3.73787C137.439 3.96271 137.913 4.2713 138.32 4.66806C138.728 5.06483 139.051 5.53213 139.295 6.07437C139.534 6.61662 139.654 7.20294 139.654 7.83776C139.654 7.98324 139.649 8.14636 139.636 8.3227C139.627 8.49904 139.614 8.61366 139.605 8.66656H132.401L132.405 8.65774ZM138.023 7.41014C138.001 7.09714 137.917 6.78855 137.771 6.47995C137.625 6.17136 137.425 5.90244 137.173 5.66879C136.92 5.43514 136.628 5.24558 136.295 5.1001C135.959 4.95462 135.6 4.87968 135.214 4.87968C134.829 4.87968 134.452 4.95462 134.124 5.1001C133.796 5.24558 133.504 5.43514 133.251 5.66879C132.999 5.90244 132.804 6.17577 132.653 6.47995C132.507 6.78855 132.423 7.09714 132.401 7.41014H138.019H138.023Z" fill="white"/>
<path d="M149.561 12.2815V7.58207C149.561 7.41455 149.552 7.1809 149.53 6.88112C149.508 6.58135 149.428 6.28157 149.295 5.9818C149.158 5.68643 148.945 5.42633 148.653 5.21031C148.36 4.98989 147.939 4.88408 147.399 4.88408C146.708 4.88408 146.154 5.11332 145.737 5.57181C145.321 6.03029 145.108 6.69597 145.108 7.56885V12.2859H143.478V3.63648H145.002V4.55785H145.033C145.254 4.26689 145.494 4.04206 145.755 3.88777C146.016 3.73347 146.269 3.61885 146.508 3.54391C146.748 3.47337 146.965 3.42928 147.16 3.42046C147.355 3.41165 147.492 3.40283 147.576 3.40283C148.254 3.40283 148.861 3.53949 149.388 3.80841C149.916 4.07733 150.337 4.46087 150.651 4.95021C150.828 5.23235 150.961 5.54976 151.05 5.90244C151.139 6.25512 151.187 6.67833 151.201 7.16767V12.2903H149.57L149.561 12.2815Z" fill="white"/>
<path d="M157.297 12.2817H155.667V5.1135H154.488V3.63225H155.667V0.727051H157.297V3.63225H158.724V5.1135H157.297V12.2817Z" fill="white"/>
<path d="M165.441 5.9289C165.388 5.57622 165.264 5.31172 165.074 5.13979C164.879 4.96786 164.631 4.88409 164.329 4.88409C164.028 4.88409 163.78 4.96786 163.589 5.13979C163.399 5.31172 163.306 5.53214 163.306 5.80547C163.306 5.98181 163.341 6.1317 163.416 6.25073C163.492 6.36976 163.589 6.47115 163.713 6.55491C163.837 6.63867 163.984 6.70921 164.143 6.76652C164.307 6.82383 164.475 6.87673 164.653 6.92963C164.821 6.98253 165.051 7.06188 165.344 7.16328C165.636 7.26908 165.929 7.42779 166.217 7.6394C166.505 7.851 166.753 8.12874 166.961 8.46819C167.169 8.80765 167.276 9.23086 167.276 9.74225C167.276 10.1258 167.209 10.4873 167.081 10.8179C166.952 11.153 166.757 11.4439 166.509 11.6908C166.257 11.9421 165.951 12.1405 165.592 12.2859C165.233 12.4314 164.821 12.5064 164.36 12.5064C164.09 12.5064 163.775 12.4579 163.416 12.3653C163.058 12.2727 162.725 12.1096 162.411 11.8715C162.096 11.6379 161.83 11.3205 161.609 10.9281C161.387 10.5314 161.281 10.0376 161.281 9.44688H162.911C162.942 9.93622 163.08 10.3198 163.328 10.6019C163.572 10.884 163.926 11.0251 164.387 11.0251C164.755 11.0251 165.056 10.9193 165.291 10.7033C165.526 10.4917 165.645 10.2007 165.645 9.83482C165.645 9.64525 165.605 9.48655 165.526 9.34989C165.446 9.21323 165.339 9.09861 165.202 8.99721C165.065 8.90022 164.905 8.81205 164.715 8.7327C164.529 8.65335 164.329 8.5784 164.117 8.50787C163.877 8.42411 163.616 8.32712 163.332 8.21691C163.049 8.10669 162.787 7.95681 162.539 7.76283C162.295 7.56886 162.087 7.32639 161.919 7.03102C161.75 6.73566 161.666 6.35653 161.666 5.89805C161.666 5.57623 161.733 5.26763 161.861 4.96786C161.99 4.67249 162.176 4.40357 162.411 4.16992C162.645 3.93627 162.933 3.74671 163.275 3.61004C163.616 3.46897 163.988 3.39844 164.396 3.39844C164.648 3.39844 164.923 3.43811 165.229 3.52187C165.53 3.60564 165.818 3.7467 166.084 3.94509C166.35 4.14347 166.58 4.40357 166.766 4.72539C166.957 5.04721 167.054 5.44838 167.063 5.9289H165.432H165.441Z" fill="white"/>
</svg>
