<svg width="28" height="28" viewBox="0 0 28 28" fill="none" xmlns="http://www.w3.org/2000/svg">
<path d="M5.86364 9.85714C5.38666 9.85714 5 9.47339 5 9C5 8.52661 5.38666 8.14286 5.86364 8.14286L21.0514 8.14286L17.3439 4.46323C17.0066 4.1285 17.0066 3.58579 17.3439 3.25105C17.6811 2.91632 18.228 2.91632 18.5652 3.25105L23.747 8.39391C24.0843 8.72864 24.0843 9.27136 23.747 9.60609L18.5652 14.7489C18.228 15.0837 17.6811 15.0837 17.3439 14.7489C17.0066 14.4142 17.0066 13.8715 17.3439 13.5368L21.0514 9.85714L5.86364 9.85714Z" fill="#99A2AD"/>
<path d="M23.1364 18.1429C23.6133 18.1429 24 18.5266 24 19C24 19.4734 23.6133 19.8571 23.1364 19.8571L7.94864 19.8571L11.6561 23.5368C11.9934 23.8715 11.9934 24.4142 11.6561 24.7489C11.3189 25.0837 10.772 25.0837 10.4348 24.7489L5.25295 19.6061C4.91568 19.2714 4.91568 18.7286 5.25295 18.3939L10.4348 13.2511C10.772 12.9163 11.3189 12.9163 11.6561 13.2511C11.9934 13.5858 11.9934 14.1285 11.6561 14.4632L7.94864 18.1429L23.1364 18.1429Z" fill="#99A2AD"/>
</svg>
